<?xml version="1.0" encoding="UTF-8" standalone="no"?>
<!-- Created with Inkscape (http://www.inkscape.org/) -->

<svg
   width="210mm"
   height="297mm"
   viewBox="0 0 210 297"
   version="1.1"
   id="svg5"
   inkscape:version="1.1.1 (c3084ef, 2021-09-22)"
   sodipodi:docname="icon.svg"
   xmlns:inkscape="http://www.inkscape.org/namespaces/inkscape"
   xmlns:sodipodi="http://sodipodi.sourceforge.net/DTD/sodipodi-0.dtd"
   xmlns="http://www.w3.org/2000/svg"
   xmlns:svg="http://www.w3.org/2000/svg">
  <sodipodi:namedview
     id="namedview7"
     pagecolor="#ffffff"
     bordercolor="#666666"
     borderopacity="1.0"
     inkscape:pageshadow="2"
     inkscape:pageopacity="0.0"
     inkscape:pagecheckerboard="0"
     inkscape:document-units="mm"
     showgrid="false"
     inkscape:zoom="0.77771465"
     inkscape:cx="377.38777"
     inkscape:cy="430.10634"
     inkscape:window-width="1402"
     inkscape:window-height="1081"
     inkscape:window-x="192"
     inkscape:window-y="27"
     inkscape:window-maximized="0"
     inkscape:current-layer="layer3" />
  <defs
     id="defs2" />
  <g
     inkscape:groupmode="layer"
     id="layer3"
     inkscape:label="Layer 3"
     style="display:inline">
    <rect
       style="fill:none;fill-opacity:1;stroke-width:0.693439;stroke-dasharray:2.77378, 2.77378"
       id="rect2081"
       width="80"
       height="80"
       x="30.958763"
       y="35.381443"
       ry="3.738322" />
  </g>
  <g
     inkscape:label="Layer 1"
     inkscape:groupmode="layer"
     id="layer1"
     style="display:inline">
    <path
       sodipodi:type="star"
       style="fill:#e63b2f;fill-opacity:1;stroke-width:3.99874;stroke-dasharray:15.995, 15.995"
       id="path870"
       inkscape:flatsided="false"
       sodipodi:sides="3"
       sodipodi:cx="155.58406"
       sodipodi:cy="230.16154"
       sodipodi:r1="205.4294"
       sodipodi:r2="102.7147"
       sodipodi:arg1="0.29205631"
       sodipodi:arg2="1.3645719"
       inkscape:rounded="0"
       inkscape:randomized="0"
       transform="matrix(0.05056527,-0.21769903,0.21769903,0.05056527,23.938957,98.069486)"
       inkscape:transform-center-x="11.412054"
       inkscape:transform-center-y="-0.076161975"
       d="M 352.31431,289.3092 176.61652,330.69982 5.9955615,370.96111 57.99913,198.10705 108.44231,30.21432 232.13653,161.67776 Z" />
  </g>
  <g
     inkscape:groupmode="layer"
     id="layer2"
     inkscape:label="Layer 2">
    <g
       style="fill:#ffffff;fill-opacity:1"
       id="g1120"
       transform="matrix(1.4220677,0,0,1.4220677,65.396935,56.211368)">
      <path
         fill-rule="evenodd"
         d="m 19.902,4.098 a 3.75,3.75 0 0 0 -5.304,0 l -4.5,4.5 a 3.75,3.75 0 0 0 1.035,6.037 0.75,0.75 0 0 1 -0.646,1.353 5.25,5.25 0 0 1 -1.449,-8.45 l 4.5,-4.5 a 5.25,5.25 0 1 1 7.424,7.424 l -1.757,1.757 a 0.75,0.75 0 1 1 -1.06,-1.06 l 1.757,-1.757 a 3.75,3.75 0 0 0 0,-5.304 z m -7.389,4.267 a 0.75,0.75 0 0 1 1,-0.353 5.25,5.25 0 0 1 1.449,8.45 l -4.5,4.5 A 5.25,5.25 0 1 1 3.038,13.538 l 1.757,-1.757 a 0.75,0.75 0 1 1 1.06,1.06 l -1.757,1.757 a 3.7504944,3.7504944 0 1 0 5.304,5.304 l 4.5,-4.5 a 3.75,3.75 0 0 0 -1.035,-6.037 0.75,0.75 0 0 1 -0.354,-1 z"
         clip-rule="evenodd"
         id="path1111"
         style="fill:#ffffff;fill-opacity:1" />
    </g>
  </g>
</svg>
